# xmcd
#
# Track frame offsets:
#	225
#	12751
#	29692
#	45872
#	67029
#	84870
#	101296
#	114881
#	132393
#	150409
#	173212
#	187532
#	200662
#	216874
#	234120
#	249374
#	270812
#	288694
#	307348
#	326741
#
# Disc length: 4509
#
# Revision: 1
# Processed by: cddbd v1.5.1PL0 Copyright (c) Steve Scherf et al.
# Submitted via: ExactAudioCopy v0.90b4
# Normalized: r0:DSETVAR1,TDELIM( - )
#
DISCID=04119a14
DTITLE=Various Artist - Classic Cuts 46 Line Dancing
DYEAR=1900
DGENRE=
TTITLE0=Roger Brown - Swing City
TTITLE1=Kimber Clayton - Jose Cuervo
TTITLE2=Lacy J. Dalton - Black Coffee
TTITLE3=The Dean Brothers - My Baby Thinks She's A Train
TTITLE4=The Grid - Swamp Thing
TTITLE5=Mark Knopfler - Cannibals
TTITLE6=Scooter Lee - Twistin The Night Away
TTITLE7=Lord Of The Dance - The Lord Of The Dance
TTITLE8=Ricky Martin - (Un, Dos Tres) Maria
TTITLE9=The Mavericks - Children
TTITLE10=John Michael Montgomery - Life Is A Dance
TTITLE11=The Ranch - Walkin' The Country
TTITLE12=Boz Scaggs - Fly Like A Bird
TTITLE13=Sham Rock - Tell Me Ma
TTITLE14=Steps - 5,6,7,8
TTITLE15=Tornado - Ghost Riders
TTITLE16=The Tractors - Baby Likes To Rock It
TTITLE17=Shania Twain - Any Man Of Mine
TTITLE18=Twister Alley - Dance
TTITLE19=The Woolpackers - Hillbilly Rock Hillbilly Roll
EXTD=
EXTT0=
EXTT1=
EXTT2=
EXTT3=
EXTT4=
EXTT5=
EXTT6=
EXTT7=
EXTT8=
EXTT9=
EXTT10=
EXTT11=
EXTT12=
EXTT13=
EXTT14=
EXTT15=
EXTT16=
EXTT17=
EXTT18=
EXTT19=
PLAYORDER=
